<svg xmlns="http://www.w3.org/2000/svg" viewBox="0 0 32.25 51.61"><defs><style>.cls-1{fill-rule:evenodd;}</style></defs><g id="Layer_2" data-name="Layer 2"><g id="Layer_1-2" data-name="Layer 1"><path class="cls-1" d="M16.13,0A16.11,16.11,0,0,1,29.21,25.54a16.22,16.22,0,0,0-3.4,9.94,3.21,3.21,0,0,1-3.22,3.22H9.68a3.21,3.21,0,0,1-3.23-3.22A16.2,16.2,0,0,0,3,25.55,16.12,16.12,0,0,1,16.13,0Zm0,2.14A14,14,0,0,0,5,24.63,18.35,18.35,0,0,1,8.6,35.48a1.05,1.05,0,0,0,.32.76,1.07,1.07,0,0,0,.76.31H22.59a1.1,1.1,0,0,0,.76-.31,1.08,1.08,0,0,0,.31-.76,18.27,18.27,0,0,1,3.58-10.84A14,14,0,0,0,16.13,2.14Zm6.46,38.71a1.08,1.08,0,0,1,0,2.16H9.68a1.08,1.08,0,0,1,0-2.16H22.59Zm0,4.31a1.08,1.08,0,1,1,0,2.15H9.68a1.07,1.07,0,0,1-1.09-1.06,1.06,1.06,0,0,1,1.06-1.09H22.59Zm-3.23,4.3a1.08,1.08,0,1,1,0,2.15H12.9a1.08,1.08,0,0,1-1.09-1.06,1.07,1.07,0,0,1,1.06-1.09h6.49Z"/></g></g></svg>