<svg xmlns="http://www.w3.org/2000/svg" width="62.5" height="63.847" viewBox="0 0 62.5 63.847"><g transform="translate(-24 -19)"><g transform="translate(24 19)"><g transform="translate(0 0)"><g transform="translate(10.776 5.388)"><path d="M144.005,117.459H104.943a.943.943,0,0,1-.943-.943V59.943a.943.943,0,0,1,.943-.943h39.062a.943.943,0,0,1,.943.943v56.573A.943.943,0,0,1,144.005,117.459Zm-38.12-1.886h37.177V60.886H105.886Z" transform="translate(-104 -59)"/></g><g transform="translate(20.205)"><path d="M195.148,26.274h-20.2a.943.943,0,0,1-.943-.943V19.943a.943.943,0,0,1,.943-.943h20.2a.943.943,0,0,1,.943.943v5.388A.943.943,0,0,1,195.148,26.274Zm-19.262-1.886H194.2v-3.5H175.886Z" transform="translate(-174 -19)"/></g><rect width="2" height="5" transform="translate(16 10.847)"/><rect width="2" height="5" transform="translate(20 10.847)"/><rect width="3" height="5" transform="translate(24 10.847)"/><rect width="3" height="5" transform="translate(36 10.847)"/><rect width="3" height="5" transform="translate(40 10.847)"/><rect width="3" height="5" transform="translate(44 10.847)"/><rect width="2" height="6" transform="translate(16 16.847)"/><rect width="2" height="6" transform="translate(20 16.847)"/><rect width="3" height="6" transform="translate(24 16.847)"/><rect width="3" height="6" transform="translate(36 16.847)"/><rect width="3" height="6" transform="translate(40 16.847)"/><rect width="3" height="6" transform="translate(44 16.847)"/><rect width="2" height="5" transform="translate(16 23.847)"/><rect width="2" height="5" transform="translate(20 23.847)"/><rect width="3" height="5" transform="translate(24 23.847)"/><rect width="3" height="5" transform="translate(36 23.847)"/><rect width="3" height="5" transform="translate(40 23.847)"/><rect width="3" height="5" transform="translate(44 23.847)"/><rect width="2" height="5" transform="translate(16 30.847)"/><rect width="2" height="5" transform="translate(20 30.847)"/><rect width="3" height="5" transform="translate(24 30.847)"/><rect width="3" height="5" transform="translate(36 30.847)"/><rect width="3" height="5" transform="translate(40 30.847)"/><rect width="3" height="5" transform="translate(44 30.847)"/><rect width="2" height="6" transform="translate(16 36.847)"/><rect width="2" height="6" transform="translate(20 36.847)"/><rect width="3" height="6" transform="translate(24 36.847)"/><rect width="3" height="6" transform="translate(36 36.847)"/><rect width="3" height="6" transform="translate(40 36.847)"/><rect width="3" height="6" transform="translate(44 36.847)"/><rect width="2" height="6" transform="translate(16 43.847)"/><rect width="2" height="6" transform="translate(20 43.847)"/><rect width="3" height="6" transform="translate(24 43.847)"/><rect width="3" height="6" transform="translate(36 43.847)"/><rect width="3" height="6" transform="translate(40 43.847)"/><rect width="3" height="6" transform="translate(44 43.847)"/><g transform="translate(25.593 51.185)"><path d="M224.372,411.662h-9.429a.943.943,0,0,1-.943-.943v-6.061a5.657,5.657,0,1,1,11.315,0v6.061A.943.943,0,0,1,224.372,411.662Zm-8.486-1.886h7.543v-5.119a3.772,3.772,0,0,0-7.543,0Z" transform="translate(-214 -399)"/></g><g transform="translate(49.838 20.205)"><path d="M401.678,212.642h-6.735A.943.943,0,0,1,394,211.7V169.943a.943.943,0,0,1,1.61-.667l6.735,6.735a.943.943,0,0,1,.276.667V211.7A.943.943,0,0,1,401.678,212.642Zm-5.792-1.886h4.849V177.068l-4.849-4.849Z" transform="translate(-394 -169)"/></g><g transform="translate(4.041 20.205)"><path d="M61.678,212.642H54.943A.943.943,0,0,1,54,211.7V175.331a.943.943,0,0,1,.354-.736l6.735-5.388a.943.943,0,0,1,1.532.736V211.7A.943.943,0,0,1,61.678,212.642Zm-5.792-1.886h4.849V171.9l-4.849,3.879Z" transform="translate(-54 -169)"/></g><g transform="translate(0 61.961)"><path d="M85.557,480.886H24.943a.943.943,0,1,1,0-1.886H85.557a.943.943,0,1,1,0,1.886Z" transform="translate(-24 -479)"/></g></g></g></g></svg>