<svg xmlns="http://www.w3.org/2000/svg" width="66.683" height="66.683" viewBox="0 0 66.683 66.683"><g transform="translate(274.026 45.59)"><g transform="translate(-274.026 -45.59)"><path d="M66.641,36.634a1.042,1.042,0,0,0,.729-1.771l-5-6.564V13.4a1.044,1.044,0,0,0-1.042-1.042H46.636a12.333,12.333,0,0,0-24.589,0H7.356A1.044,1.044,0,0,0,6.314,13.4V28.3L1.208,34.967a1.056,1.056,0,0,0,.834,1.667H6.314V65.6H2.042a1.042,1.042,0,0,0,0,2.084h64.6a1.042,1.042,0,0,0,0-2.084H62.369V36.634Zm-32.3-33.55A10.315,10.315,0,1,1,24.026,13.4,10.272,10.272,0,0,1,34.341,3.084ZM8.4,14.441H22.047a12.333,12.333,0,0,0,24.589,0H60.285V27.673H8.4ZM7.877,29.653h52.93l3.751,4.9H4.022ZM33.3,65.6H29.757V53.93a4.688,4.688,0,0,1,3.543-4.48Zm2.084,0V49.449a4.491,4.491,0,0,1,3.543,4.48V65.6Zm24.9,0H40.906V53.93a6.564,6.564,0,1,0-13.128,0V65.6H8.4V36.634H60.389V65.6Z" transform="translate(-1 -1)"/><path d="M19.027,16.8H11.942A1.044,1.044,0,0,0,10.9,17.842v5.21a1.044,1.044,0,0,0,1.042,1.042h7.085a1.044,1.044,0,0,0,1.042-1.042v-5.21A.984.984,0,0,0,19.027,16.8Zm-.938,5.105H12.984V18.78h5.105Z" transform="translate(-0.585 -0.338)"/><path d="M54.327,16.8H47.242A1.044,1.044,0,0,0,46.2,17.842v5.21a1.044,1.044,0,0,0,1.042,1.042h7.085a1.044,1.044,0,0,0,1.042-1.042v-5.21A.984.984,0,0,0,54.327,16.8Zm-.938,5.105H48.284V18.78h5.105Z" transform="translate(0.895 -0.338)"/><path d="M44.242,59.943h9.273A1.044,1.044,0,0,0,54.557,58.9V49.419h0V40.042A1.044,1.044,0,0,0,53.515,39H44.242A1.044,1.044,0,0,0,43.2,40.042V59A.962.962,0,0,0,44.242,59.943Zm.938-1.98v-7.4h7.293v7.4Zm7.293-16.879v7.4H45.18v-7.4Z" transform="translate(0.769 0.593)"/><path d="M12.942,59.943h9.273A1.044,1.044,0,0,0,23.257,58.9V49.419h0V40.042A1.044,1.044,0,0,0,22.215,39H12.942A1.044,1.044,0,0,0,11.9,40.042V59A1.028,1.028,0,0,0,12.942,59.943Zm1.042-1.98v-7.4h7.293v7.4Zm7.189-16.879v7.4H13.88v-7.4Z" transform="translate(-0.543 0.593)"/></g></g></svg>