<svg xmlns="http://www.w3.org/2000/svg" width="64.311" height="59.245" viewBox="0 0 64.311 59.245"><defs><style>.a{fill:none;stroke:#000;stroke-miterlimit:10;stroke-width:2px;}</style></defs><g transform="translate(-1 -1)"><g transform="translate(2 2)"><g transform="translate(0)"><path class="a" d="M19.223,22.32,2,36V66.9H36.445V36Z" transform="translate(-2 -9.658)"/><rect class="a" width="17.223" height="21.784" transform="translate(8.611 35.461)"/><path class="a" d="M86.331,2h0a7.091,7.091,0,0,1,7.091,7.091V59.245H79.24V9.091A7.091,7.091,0,0,1,86.331,2Z" transform="translate(-31.111 -2)"/><line class="a" x2="14.188" transform="translate(33.941 26.345)"/><line class="a" x2="7.166" transform="translate(55.145 21.279)"/><line class="a" x2="7.166" transform="translate(55.145 42.552)"/><line class="a" x2="7.166" transform="translate(55.145 36.477)"/><line class="a" x2="7.166" transform="translate(55.145 28.37)"/><line class="a" x2="13.173" transform="translate(34.445 57.245)"/><line class="a" x2="44.864" transform="translate(17.135 12.356)"/></g></g></g></svg>