<svg xmlns="http://www.w3.org/2000/svg" width="55.448" height="66.59" viewBox="0 0 55.448 66.59"><g transform="translate(0)"><path d="M52.579,60.851h-.8a3.954,3.954,0,0,0-7.064,0,2.788,2.788,0,0,0-.357,0,2.87,2.87,0,0,0-2.87,2.87,2.821,2.821,0,0,0,.13.81H35.78V58.908h4.867V56.849H35.78V50.265h5.492v2.808h2.059V50.265H47.45V52.86H49.51V14.595H12.48V64.53H10.7V10.895H51.281V53.08h2.059V8.835H49.5V3.844H38.739V0h-15.5V3.844H12.48V8.835H8.636v55.7H5.176V60.466a3.729,3.729,0,0,0,3.117-4.043c0-3-2.265-7.778-4.119-7.778-.92,0-1.867.961-2.821,2.863A11.972,11.972,0,0,0,0,56.416a3.72,3.72,0,0,0,3.117,4.043V64.53H.838V66.59H52.579a2.87,2.87,0,0,0,0-5.739ZM25.3,2.059H36.679V3.844H25.3ZM14.54,5.9h32.9V8.835H14.54ZM2.183,57.3C1.627,55.242,3.3,51.81,4.167,50.869c.872.961,2.54,4.387,1.977,6.432-.151.563-.515,1.208-1.977,1.208s-1.847-.652-2-1.215ZM33.721,64.53H28.229V58.908h5.492ZM26.169,41.622v6.583H20.677V41.622Zm-5.492-2.059V32.952h5.492v6.583Zm7.551,2.059h5.492v6.583H28.229Zm0-2.059V32.952h5.492v6.583Zm0-8.643V24.336h5.492v6.556Zm7.551,2.059h5.492v6.583H35.78Zm7.551,0H47.45v6.583H43.331ZM47.45,30.92H43.331V24.336H47.45Zm-6.178,0H35.78V24.336h5.492ZM35.78,22.277V16.654h5.492v5.622Zm-2.059,0H28.229V16.654h5.492Zm-7.551,0H20.677V16.654h5.492Zm0,2.059v6.556H20.677V24.336Zm-7.49,6.556H14.561V24.336h4.119Zm0,2.059v6.583H14.561V32.952Zm0,8.643v6.583H14.561V41.622Zm-4.119,8.643h4.119v6.583H14.561Zm6.178,0h5.492v6.583H20.739Zm5.492,8.643v5.65H20.739V58.908Zm7.551-2.059H28.29V50.265h5.492Zm2.059-8.643V41.622h5.492v6.583Zm7.551,0V41.622h4.119v6.583Zm4.119-25.929H43.393V16.654h4.119ZM18.679,16.654v5.622H14.561V16.654ZM14.561,58.908h4.119V64.53H14.561ZM52.579,64.53H44.341a.81.81,0,1,1,.446-1.49l1.339.879.247-1.579a1.888,1.888,0,0,1,3.693-.192l.206.769h2.3a.81.81,0,0,1,0,1.62Z" transform="translate(0)"/></g></svg>