<svg xmlns="http://www.w3.org/2000/svg" width="71.862" height="66.35" viewBox="0 0 71.862 66.35"><path d="M21.15,52.907h7.983V41.21H21.15Zm2.193-2.193v-4.62h3.6v4.62Zm3.6-7.31v.534h-3.6V43.4Z" transform="translate(-5.688 -11.084)"/><rect width="2.179" height="2.193" transform="translate(18.364 55.976)"/><path d="M71.862,26.99,66.123,11.938H57.278V6.784h3.655V0H44.068V6.784h3.655v5.154H21.931L19.446,9.452,16.96,11.938H9.5L4.905,24,0,28.913,4,32.9l.387-.38V66.35h64.53V26.99ZM46.275,4.591v-2.4h12.5v2.4H46.261Zm8.831,2.193V17.45H49.931V6.784Zm-7.369,7.347v5.512h9.54V14.131h7.31L68.653,24.8H34.8L24.125,14.131Zm-36.728,0h3.765L8.7,20.213ZM3.1,28.913,19.453,12.552,35.821,28.913l-.9.9L19.453,14.358,4,29.812ZM38.6,64V51.575l1.659-.826,1.659.826V64Zm5.512-8.831h2.676v1.776h-2.7ZM48.98,64V51.568l1.659-.826,1.659.826V64Zm5.512-8.831h2.7v1.784h-2.7ZM59.39,64V51.568l1.659-.826,1.659.826V64ZM64.9,55.165h1.791v1.784H64.939Zm0,3.984h1.791v1.784H64.939Zm-10.41,0h2.7v1.784h-2.7Zm0,3.977h2.7v1.031h-2.7ZM44.119,59.142h2.668v1.784h-2.7Zm0,3.977h2.668v1.031h-2.7Zm-9.606-3.977h1.893v1.784H34.513Zm1.893-2.193H34.513V55.165h1.893ZM17.655,64.157V49.66h3.6v14.5Zm5.79,0V47.467H15.462v16.69H6.579V30.324L19.446,17.457,32.312,30.324V64.157Zm11.068-1.031h1.893v1.031H34.513Zm30.419,1.031V63.126h1.791v1.031Zm1.791-11.185H64.939v-2.8l-3.853-1.923-3.853,1.923v2.793h-2.7V50.172l-3.853-1.923-3.889,1.923v2.793h-2.7V50.172l-3.816-1.923-3.853,1.923v2.793h-1.9V32.5l.395.395,4-4-1.915-1.9H66.723Z"/><path d="M76.593,52.816H74.751V44H55.415v8.816H53.58v5.914H76.593ZM57.608,46.193h14.95v6.638H57.608ZM74.422,56.552H55.773V55.01H74.4Z" transform="translate(-14.41 -11.834)"/></svg>