<svg xmlns="http://www.w3.org/2000/svg" width="68.553" height="58.277" viewBox="0 0 68.553 58.277"><path d="M10.39,44.319H22.051V33.76H10.39Zm2.12-8.445h7.421V42.2H12.51Z" transform="translate(-3.047 -9.901)"/><path d="M81.771,33.76H70.11V44.319H81.771Zm-2.12,8.445H72.23V35.88h7.421Z" transform="translate(-20.561 -9.901)"/><path d="M68.553,11.746H61.846v4.035H60.291V11.746H56.439V6.156h8.445V0H54.319V11.746H50.468v4.035H48.92V11.746H42.206V22.3h3.668v5.59H40.658v-7.71h-5.6v3.668H33.5V20.184h-5.6v7.71H22.672V22.3H26.34V11.746H19.633v4.035H18.085V11.746H14.234V6.156h8.438V0H12.113V11.746H8.262v4.035H6.707V11.746H0V22.3H3.668V58.277H64.885V22.3h3.668Zm-5.788-7.71H56.439V2.12h6.318Zm-42.206,0H14.234V2.12h6.325ZM2.12,20.184V13.866H4.587V17.9h5.788V13.866h5.59V17.9h5.788V13.866H24.22v6.318H2.12ZM9.463,56.157V44a3.71,3.71,0,1,1,7.421,0V56.157Zm9.541,0V44A5.831,5.831,0,1,0,7.343,44V56.157H5.788V22.3H20.552V56.157Zm11.011,0V38.679a4.262,4.262,0,0,1,8.523,0V56.157Zm10.643,0V38.679a6.382,6.382,0,1,0-12.764,0V56.157H22.672V30.008h7.343V22.3h1.364v3.668h5.8V22.3h1.364v7.71h7.343V56.164Zm11.011,0V44a3.71,3.71,0,1,1,7.421,0V56.157Zm11.1,0H61.21V44a5.831,5.831,0,1,0-11.661,0V56.157H48V22.3H62.765Zm3.668-35.973H44.326V13.866h2.466V17.9h5.788V13.866h5.59V17.9h5.788V13.866h2.474Z"/></svg>